<mxfile host="app.diagrams.net" modified="2024-04-02T08:14:43.208Z" agent="Mozilla/5.0 (Windows NT 10.0; Win64; x64) AppleWebKit/537.36 (KHTML, like Gecko) Chrome/123.0.0.0 Safari/537.36" etag="mF_tRYggDc8emwpDfkER" version="24.0.5" type="github">
  <diagram name="第 1 页" id="HTj6zAclL5rWXVOb5opd">
    <mxGraphModel dx="1562" dy="818" grid="1" gridSize="10" guides="1" tooltips="1" connect="1" arrows="1" fold="1" page="1" pageScale="1" pageWidth="827" pageHeight="1169" math="0" shadow="0">
      <root>
        <mxCell id="0" />
        <mxCell id="1" parent="0" />
        <mxCell id="NqOp-JE2sCSPgDlB_6xQ-30" style="edgeStyle=orthogonalEdgeStyle;rounded=0;orthogonalLoop=1;jettySize=auto;html=1;entryX=0.5;entryY=0;entryDx=0;entryDy=0;" edge="1" parent="1" source="NqOp-JE2sCSPgDlB_6xQ-1" target="NqOp-JE2sCSPgDlB_6xQ-3">
          <mxGeometry relative="1" as="geometry" />
        </mxCell>
        <mxCell id="NqOp-JE2sCSPgDlB_6xQ-1" value="\\10.100.7.242\storage" style="rounded=1;whiteSpace=wrap;html=1;" vertex="1" parent="1">
          <mxGeometry x="140" y="20" width="120" height="60" as="geometry" />
        </mxCell>
        <mxCell id="NqOp-JE2sCSPgDlB_6xQ-29" style="edgeStyle=orthogonalEdgeStyle;rounded=0;orthogonalLoop=1;jettySize=auto;html=1;" edge="1" parent="1" source="NqOp-JE2sCSPgDlB_6xQ-2" target="NqOp-JE2sCSPgDlB_6xQ-3">
          <mxGeometry relative="1" as="geometry" />
        </mxCell>
        <mxCell id="NqOp-JE2sCSPgDlB_6xQ-2" value="\\10.100.6.76\storage" style="rounded=1;whiteSpace=wrap;html=1;" vertex="1" parent="1">
          <mxGeometry x="320" y="20" width="120" height="60" as="geometry" />
        </mxCell>
        <mxCell id="NqOp-JE2sCSPgDlB_6xQ-32" value="" style="edgeStyle=orthogonalEdgeStyle;rounded=0;orthogonalLoop=1;jettySize=auto;html=1;" edge="1" parent="1" source="NqOp-JE2sCSPgDlB_6xQ-3" target="NqOp-JE2sCSPgDlB_6xQ-31">
          <mxGeometry relative="1" as="geometry" />
        </mxCell>
        <mxCell id="NqOp-JE2sCSPgDlB_6xQ-3" value="每日晚10点&lt;div&gt;获取csv文件&lt;/div&gt;" style="rounded=1;whiteSpace=wrap;html=1;" vertex="1" parent="1">
          <mxGeometry x="220" y="150" width="120" height="60" as="geometry" />
        </mxCell>
        <mxCell id="NqOp-JE2sCSPgDlB_6xQ-10" value="" style="edgeStyle=orthogonalEdgeStyle;rounded=0;orthogonalLoop=1;jettySize=auto;html=1;" edge="1" parent="1" source="NqOp-JE2sCSPgDlB_6xQ-5" target="NqOp-JE2sCSPgDlB_6xQ-6">
          <mxGeometry relative="1" as="geometry" />
        </mxCell>
        <mxCell id="NqOp-JE2sCSPgDlB_6xQ-14" value="" style="edgeStyle=orthogonalEdgeStyle;rounded=0;orthogonalLoop=1;jettySize=auto;html=1;" edge="1" parent="1" source="NqOp-JE2sCSPgDlB_6xQ-5" target="NqOp-JE2sCSPgDlB_6xQ-13">
          <mxGeometry relative="1" as="geometry" />
        </mxCell>
        <mxCell id="NqOp-JE2sCSPgDlB_6xQ-5" value="新项目" style="rhombus;whiteSpace=wrap;html=1;" vertex="1" parent="1">
          <mxGeometry x="240" y="492" width="80" height="80" as="geometry" />
        </mxCell>
        <mxCell id="NqOp-JE2sCSPgDlB_6xQ-6" value="读取csv列名包括IID、category、path、analyzer存入数据库，并新增审核结果列（值包括确认、误报）" style="rounded=1;whiteSpace=wrap;html=1;" vertex="1" parent="1">
          <mxGeometry x="215" y="646.5" width="130" height="85.5" as="geometry" />
        </mxCell>
        <mxCell id="NqOp-JE2sCSPgDlB_6xQ-11" value="是" style="text;html=1;align=center;verticalAlign=middle;resizable=0;points=[];autosize=1;strokeColor=none;fillColor=none;" vertex="1" parent="1">
          <mxGeometry x="270" y="580" width="40" height="30" as="geometry" />
        </mxCell>
        <mxCell id="NqOp-JE2sCSPgDlB_6xQ-12" value="否" style="text;html=1;align=center;verticalAlign=middle;resizable=0;points=[];autosize=1;strokeColor=none;fillColor=none;" vertex="1" parent="1">
          <mxGeometry x="320" y="490" width="40" height="30" as="geometry" />
        </mxCell>
        <mxCell id="NqOp-JE2sCSPgDlB_6xQ-18" value="" style="edgeStyle=orthogonalEdgeStyle;rounded=0;orthogonalLoop=1;jettySize=auto;html=1;" edge="1" parent="1" source="NqOp-JE2sCSPgDlB_6xQ-13" target="NqOp-JE2sCSPgDlB_6xQ-17">
          <mxGeometry relative="1" as="geometry" />
        </mxCell>
        <mxCell id="NqOp-JE2sCSPgDlB_6xQ-20" value="" style="edgeStyle=orthogonalEdgeStyle;rounded=0;orthogonalLoop=1;jettySize=auto;html=1;entryX=0.997;entryY=0.415;entryDx=0;entryDy=0;entryPerimeter=0;" edge="1" parent="1" source="NqOp-JE2sCSPgDlB_6xQ-13" target="NqOp-JE2sCSPgDlB_6xQ-6">
          <mxGeometry relative="1" as="geometry">
            <mxPoint x="440" y="662" as="targetPoint" />
            <Array as="points">
              <mxPoint x="440" y="682" />
            </Array>
          </mxGeometry>
        </mxCell>
        <mxCell id="NqOp-JE2sCSPgDlB_6xQ-23" style="edgeStyle=orthogonalEdgeStyle;rounded=0;orthogonalLoop=1;jettySize=auto;html=1;entryX=0;entryY=0.5;entryDx=0;entryDy=0;" edge="1" parent="1" source="NqOp-JE2sCSPgDlB_6xQ-13" target="NqOp-JE2sCSPgDlB_6xQ-21">
          <mxGeometry relative="1" as="geometry">
            <mxPoint x="540" y="350" as="targetPoint" />
            <Array as="points">
              <mxPoint x="440" y="430" />
            </Array>
          </mxGeometry>
        </mxCell>
        <mxCell id="NqOp-JE2sCSPgDlB_6xQ-13" value="与历史IID&lt;div&gt;比较&lt;/div&gt;" style="rhombus;whiteSpace=wrap;html=1;" vertex="1" parent="1">
          <mxGeometry x="400" y="492" width="80" height="80" as="geometry" />
        </mxCell>
        <mxCell id="NqOp-JE2sCSPgDlB_6xQ-17" value="忽略" style="rounded=1;whiteSpace=wrap;html=1;" vertex="1" parent="1">
          <mxGeometry x="540" y="502" width="120" height="60" as="geometry" />
        </mxCell>
        <mxCell id="NqOp-JE2sCSPgDlB_6xQ-21" value="标记为减少漏洞" style="rounded=1;whiteSpace=wrap;html=1;" vertex="1" parent="1">
          <mxGeometry x="540" y="400" width="120" height="60" as="geometry" />
        </mxCell>
        <mxCell id="NqOp-JE2sCSPgDlB_6xQ-24" value="减少" style="text;html=1;align=center;verticalAlign=middle;resizable=0;points=[];autosize=1;strokeColor=none;fillColor=none;" vertex="1" parent="1">
          <mxGeometry x="430" y="450" width="50" height="30" as="geometry" />
        </mxCell>
        <mxCell id="NqOp-JE2sCSPgDlB_6xQ-25" value="已有" style="text;html=1;align=center;verticalAlign=middle;resizable=0;points=[];autosize=1;strokeColor=none;fillColor=none;" vertex="1" parent="1">
          <mxGeometry x="475" y="500" width="50" height="30" as="geometry" />
        </mxCell>
        <mxCell id="NqOp-JE2sCSPgDlB_6xQ-26" value="新增" style="text;html=1;align=center;verticalAlign=middle;resizable=0;points=[];autosize=1;strokeColor=none;fillColor=none;" vertex="1" parent="1">
          <mxGeometry x="440" y="616.5" width="50" height="30" as="geometry" />
        </mxCell>
        <mxCell id="NqOp-JE2sCSPgDlB_6xQ-33" value="" style="edgeStyle=orthogonalEdgeStyle;rounded=0;orthogonalLoop=1;jettySize=auto;html=1;" edge="1" parent="1" source="NqOp-JE2sCSPgDlB_6xQ-31" target="NqOp-JE2sCSPgDlB_6xQ-5">
          <mxGeometry relative="1" as="geometry" />
        </mxCell>
        <mxCell id="NqOp-JE2sCSPgDlB_6xQ-44" style="edgeStyle=orthogonalEdgeStyle;rounded=0;orthogonalLoop=1;jettySize=auto;html=1;entryX=0.5;entryY=0;entryDx=0;entryDy=0;" edge="1" parent="1" source="NqOp-JE2sCSPgDlB_6xQ-31" target="NqOp-JE2sCSPgDlB_6xQ-38">
          <mxGeometry relative="1" as="geometry" />
        </mxCell>
        <mxCell id="NqOp-JE2sCSPgDlB_6xQ-31" value="以文件名中&quot;_&quot;作为分隔符分别获取项目名及日期" style="whiteSpace=wrap;html=1;rounded=1;" vertex="1" parent="1">
          <mxGeometry x="220" y="260" width="120" height="60" as="geometry" />
        </mxCell>
        <mxCell id="NqOp-JE2sCSPgDlB_6xQ-45" style="edgeStyle=orthogonalEdgeStyle;rounded=0;orthogonalLoop=1;jettySize=auto;html=1;exitX=0.5;exitY=1;exitDx=0;exitDy=0;" edge="1" parent="1" source="NqOp-JE2sCSPgDlB_6xQ-38">
          <mxGeometry relative="1" as="geometry">
            <mxPoint x="710" y="520" as="sourcePoint" />
            <mxPoint x="280" y="420" as="targetPoint" />
            <Array as="points">
              <mxPoint x="750" y="760" />
              <mxPoint x="120" y="760" />
              <mxPoint x="120" y="420" />
            </Array>
          </mxGeometry>
        </mxCell>
        <mxCell id="NqOp-JE2sCSPgDlB_6xQ-38" value="日期增加" style="rhombus;whiteSpace=wrap;html=1;" vertex="1" parent="1">
          <mxGeometry x="710" y="440" width="80" height="80" as="geometry" />
        </mxCell>
      </root>
    </mxGraphModel>
  </diagram>
</mxfile>
